solid OpenSCAD_Model
  facet normal 0 0 -1
    outer loop
      vertex 7.5 -1.7998 -180
      vertex 6.49707 -1.59961 -180
      vertex 7.2998 -1.59961 -180
    endloop
  endfacet
  facet normal 0 0 -1
    outer loop
      vertex -1.59961 -7.2998 -180
      vertex -1.6582 -7.44141 -180
      vertex -1.7998 -7.5 -180
    endloop
  endfacet
  facet normal -0 0 -1
    outer loop
      vertex -1.59961 -6.5 -180
      vertex -1.7998 -7.5 -180
      vertex -2.5 -5.5 -180
    endloop
  endfacet
  facet normal -0 0 -1
    outer loop
      vertex -1.59961 -7.2998 -180
      vertex -1.7998 -7.5 -180
      vertex -1.59961 -6.5 -180
    endloop
  endfacet
  facet normal -0 -0 -1
    outer loop
      vertex -2.5 -5.5 -180
      vertex -1.7998 -7.5 -180
      vertex -3.53418 -5.5 -180
    endloop
  endfacet
  facet normal 0 0 -1
    outer loop
      vertex -7.32422 -7.32422 -180
      vertex -7.5 -6.90039 -180
      vertex -6.90039 -7.5 -180
    endloop
  endfacet
  facet normal 0 0 -1
    outer loop
      vertex -7.5 -6.90039 -180
      vertex -5.5 -3.53418 -180
      vertex -5.25293 -3.9043 -180
    endloop
  endfacet
  facet normal 0 -0 -1
    outer loop
      vertex -6.90039 7.5 -180
      vertex -3.9248 5.25586 -180
      vertex -7.5 6.90039 -180
    endloop
  endfacet
  facet normal 0 0 -1
    outer loop
      vertex 3.55664 5.5 -180
      vertex 2.5 5.5 -180
      vertex 1.7998 7.5 -180
    endloop
  endfacet
  facet normal 0 0 -1
    outer loop
      vertex 2.5 5.5 -180
      vertex 1.59961 6.5 -180
      vertex 1.7998 7.5 -180
    endloop
  endfacet
  facet normal -0 0 -1
    outer loop
      vertex 7.5 -1.7998 -180
      vertex 5.5 -2.5 -180
      vertex 6.49707 -1.59961 -180
    endloop
  endfacet
  facet normal 0 0 -1
    outer loop
      vertex 6.90039 -7.5 -180
      vertex 3.9248 -5.25586 -180
      vertex 7.5 -6.90039 -180
    endloop
  endfacet
  facet normal -0 0 -1
    outer loop
      vertex 7.32422 -7.32422 -180
      vertex 6.90039 -7.5 -180
      vertex 7.5 -6.90039 -180
    endloop
  endfacet
  facet normal 0 0 -1
    outer loop
      vertex 1.59961 -6.5 -180
      vertex 1.7998 -7.5 -180
      vertex 1.59961 -7.2998 -180
    endloop
  endfacet
  facet normal 0 0 -1
    outer loop
      vertex 1.59961 -7.2998 -180
      vertex 1.7998 -7.5 -180
      vertex 1.6582 -7.44141 -180
    endloop
  endfacet
  facet normal 0 0 -1
    outer loop
      vertex 1.59961 -6.5 -180
      vertex 2.5 -5.5 -180
      vertex 1.7998 -7.5 -180
    endloop
  endfacet
  facet normal 0 -0 -1
    outer loop
      vertex 2.5 -5.5 -180
      vertex 3.55664 -5.5 -180
      vertex 1.7998 -7.5 -180
    endloop
  endfacet
  facet normal 0 0 -1
    outer loop
      vertex 1.7998 -7.5 -180
      vertex 3.55664 -5.5 -180
      vertex 6.90039 -7.5 -180
    endloop
  endfacet
  facet normal 0 0 -1
    outer loop
      vertex 6.90039 -7.5 -180
      vertex 3.55664 -5.5 -180
      vertex 3.9248 -5.25586 -180
    endloop
  endfacet
  facet normal 0 0 -1
    outer loop
      vertex 5.5 -3.53418 -180
      vertex 5.5 -2.5 -180
      vertex 7.5 -1.7998 -180
    endloop
  endfacet
  facet normal 0 0 -1
    outer loop
      vertex 7.5 -1.7998 -180
      vertex 7.2998 -1.59961 -180
      vertex 7.44141 -1.6582 -180
    endloop
  endfacet
  facet normal 0 0 -1
    outer loop
      vertex 1.71777 -2.62207 -180
      vertex 2.61719 -1.61719 -180
      vertex 4.81738 -3.81738 -180
    endloop
  endfacet
  facet normal 0 0 -1
    outer loop
      vertex 1.71777 -2.62207 -180
      vertex 1.43066 -2.5 -180
      vertex 2.61719 -1.61719 -180
    endloop
  endfacet
  facet normal 0 0 -1
    outer loop
      vertex 5.25293 -3.9043 -180
      vertex 3.9248 -5.25586 -180
      vertex 3.84473 -4.82227 -180
    endloop
  endfacet
  facet normal 0 0 -1
    outer loop
      vertex 5.5 -3.53418 -180
      vertex 7.5 -1.7998 -180
      vertex 7.5 -6.90039 -180
    endloop
  endfacet
  facet normal 0 0 -1
    outer loop
      vertex 3.9248 -5.25586 -180
      vertex 5.25293 -3.9043 -180
      vertex 7.5 -6.90039 -180
    endloop
  endfacet
  facet normal 0 0 -1
    outer loop
      vertex 5.25293 -3.9043 -180
      vertex 5.5 -3.53418 -180
      vertex 7.5 -6.90039 -180
    endloop
  endfacet
  facet normal 0 0 -1
    outer loop
      vertex 1.71777 -2.62207 -180
      vertex 4.81738 -3.81738 -180
      vertex 3.84473 -4.82227 -180
    endloop
  endfacet
  facet normal 0 -0 -1
    outer loop
      vertex 4.81738 -3.81738 -180
      vertex 5.25293 -3.9043 -180
      vertex 3.84473 -4.82227 -180
    endloop
  endfacet
  facet normal -0 0 -1
    outer loop
      vertex 2.5 -1.33398 -180
      vertex 1.43066 -2.5 -180
      vertex 0.401367 -1.23633 -180
    endloop
  endfacet
  facet normal -0 0 -1
    outer loop
      vertex 2.61719 -1.61719 -180
      vertex 1.43066 -2.5 -180
      vertex 2.5 -1.33398 -180
    endloop
  endfacet
  facet normal 0 0 -1
    outer loop
      vertex 1.59961 7.2998 -180
      vertex 1.7998 7.5 -180
      vertex 1.59961 6.5 -180
    endloop
  endfacet
  facet normal 0 0 -1
    outer loop
      vertex 1.7998 7.5 -180
      vertex 6.90039 7.5 -180
      vertex 3.55664 5.5 -180
    endloop
  endfacet
  facet normal 0 0 -1
    outer loop
      vertex 3.9248 5.25586 -180
      vertex 6.90039 7.5 -180
      vertex 7.5 6.90039 -180
    endloop
  endfacet
  facet normal 0 0 -1
    outer loop
      vertex 7.5 6.90039 -180
      vertex 6.90039 7.5 -180
      vertex 7.32422 7.32422 -180
    endloop
  endfacet
  facet normal 0 0 -1
    outer loop
      vertex 6.5 1.59961 -180
      vertex 7.5 1.7998 -180
      vertex 7.2998 1.59961 -180
    endloop
  endfacet
  facet normal 0 0 -1
    outer loop
      vertex 7.2998 1.59961 -180
      vertex 7.5 1.7998 -180
      vertex 7.44141 1.6582 -180
    endloop
  endfacet
  facet normal 0 0 -1
    outer loop
      vertex 6.5 1.59961 -180
      vertex 5.5 2.5 -180
      vertex 7.5 1.7998 -180
    endloop
  endfacet
  facet normal 0 0 -1
    outer loop
      vertex 5.5 2.5 -180
      vertex 5.5 3.53418 -180
      vertex 7.5 1.7998 -180
    endloop
  endfacet
  facet normal 0 0 -1
    outer loop
      vertex 7.5 1.7998 -180
      vertex 5.5 3.53418 -180
      vertex 7.5 6.90039 -180
    endloop
  endfacet
  facet normal 0 0 -1
    outer loop
      vertex 7.5 6.90039 -180
      vertex 5.5 3.53418 -180
      vertex 5.25293 3.9043 -180
    endloop
  endfacet
  facet normal 0 -0 -1
    outer loop
      vertex 1.6582 7.44141 -180
      vertex 1.7998 7.5 -180
      vertex 1.59961 7.2998 -180
    endloop
  endfacet
  facet normal -0 0 -1
    outer loop
      vertex 4.81738 3.81738 -180
      vertex 1.71777 2.62207 -180
      vertex 3.84473 4.82227 -180
    endloop
  endfacet
  facet normal -0 -0 -1
    outer loop
      vertex -1.05176 0.763672 -180
      vertex -1.05176 -0.763672 -180
      vertex -2.5 1.33398 -180
    endloop
  endfacet
  facet normal 0 0 -1
    outer loop
      vertex 4.81738 3.81738 -180
      vertex 2.61719 1.61719 -180
      vertex 1.71777 2.62207 -180
    endloop
  endfacet
  facet normal 0 0 -1
    outer loop
      vertex 3.84473 4.82227 -180
      vertex 3.9248 5.25586 -180
      vertex 5.25293 3.9043 -180
    endloop
  endfacet
  facet normal 0 0 -1
    outer loop
      vertex 3.55664 5.5 -180
      vertex 6.90039 7.5 -180
      vertex 3.9248 5.25586 -180
    endloop
  endfacet
  facet normal 0 0 -1
    outer loop
      vertex 3.9248 5.25586 -180
      vertex 7.5 6.90039 -180
      vertex 5.25293 3.9043 -180
    endloop
  endfacet
  facet normal 0 0 -1
    outer loop
      vertex 3.84473 4.82227 -180
      vertex 5.25293 3.9043 -180
      vertex 4.81738 3.81738 -180
    endloop
  endfacet
  facet normal 0 0 -1
    outer loop
      vertex 1.43066 2.5 -180
      vertex 2.61719 1.61719 -180
      vertex 2.5 1.33398 -180
    endloop
  endfacet
  facet normal 0 -0 -1
    outer loop
      vertex 1.71777 2.62207 -180
      vertex 2.61719 1.61719 -180
      vertex 1.43066 2.5 -180
    endloop
  endfacet
  facet normal 0 0 -1
    outer loop
      vertex -7.2998 1.59961 -180
      vertex -7.5 1.7998 -180
      vertex -6.48633 1.59961 -180
    endloop
  endfacet
  facet normal -0 0 -1
    outer loop
      vertex -1.43066 2.5 -180
      vertex -2.61719 1.61719 -180
      vertex -1.71777 2.62207 -180
    endloop
  endfacet
  facet normal 0 0 -1
    outer loop
      vertex -7.2998 1.59961 -180
      vertex -7.44141 1.6582 -180
      vertex -7.5 1.7998 -180
    endloop
  endfacet
  facet normal 0 0 -1
    outer loop
      vertex -7.5 6.90039 -180
      vertex -7.32422 7.32422 -180
      vertex -6.90039 7.5 -180
    endloop
  endfacet
  facet normal 0 0 -1
    outer loop
      vertex -7.5 1.7998 -180
      vertex -7.5 6.90039 -180
      vertex -5.5 3.53418 -180
    endloop
  endfacet
  facet normal 0 0 -1
    outer loop
      vertex -1.59961 6.5 -180
      vertex -1.7998 7.5 -180
      vertex -1.59961 7.2998 -180
    endloop
  endfacet
  facet normal 0 0 -1
    outer loop
      vertex -1.59961 7.2998 -180
      vertex -1.7998 7.5 -180
      vertex -1.6582 7.44141 -180
    endloop
  endfacet
  facet normal -0 0 -1
    outer loop
      vertex -1.59961 6.5 -180
      vertex -2.5 5.5 -180
      vertex -1.7998 7.5 -180
    endloop
  endfacet
  facet normal 0 0 -1
    outer loop
      vertex -2.5 5.5 -180
      vertex -3.55664 5.5 -180
      vertex -1.7998 7.5 -180
    endloop
  endfacet
  facet normal -0 0 -1
    outer loop
      vertex -1.7998 7.5 -180
      vertex -3.55664 5.5 -180
      vertex -6.90039 7.5 -180
    endloop
  endfacet
  facet normal 0 0 -1
    outer loop
      vertex -6.90039 7.5 -180
      vertex -3.55664 5.5 -180
      vertex -3.9248 5.25586 -180
    endloop
  endfacet
  facet normal -0 0 -1
    outer loop
      vertex -5.5 2.5 -180
      vertex -7.5 1.7998 -180
      vertex -5.5 3.53418 -180
    endloop
  endfacet
  facet normal 0 0 -1
    outer loop
      vertex -1.61719 -2.61719 -180
      vertex -2.61719 -1.61719 -180
      vertex -2.5 -1.33398 -180
    endloop
  endfacet
  facet normal 0 0 -1
    outer loop
      vertex -2.61719 -1.61719 -180
      vertex -3.81738 -4.81738 -180
      vertex -4.81738 -3.81738 -180
    endloop
  endfacet
  facet normal 0 0 -1
    outer loop
      vertex -7.5 1.7998 -180
      vertex -5.5 2.5 -180
      vertex -6.48633 1.59961 -180
    endloop
  endfacet
  facet normal 0 -0 -1
    outer loop
      vertex -3.9248 5.25586 -180
      vertex -3.84473 4.82227 -180
      vertex -5.25293 3.9043 -180
    endloop
  endfacet
  facet normal 0 0 -1
    outer loop
      vertex -5.25293 3.9043 -180
      vertex -3.84473 4.82227 -180
      vertex -4.81738 3.81738 -180
    endloop
  endfacet
  facet normal 0 0 -1
    outer loop
      vertex -5.5 3.53418 -180
      vertex -7.5 6.90039 -180
      vertex -5.25293 3.9043 -180
    endloop
  endfacet
  facet normal 0 0 -1
    outer loop
      vertex -5.25293 3.9043 -180
      vertex -7.5 6.90039 -180
      vertex -3.9248 5.25586 -180
    endloop
  endfacet
  facet normal 0 0 -1
    outer loop
      vertex -4.81738 3.81738 -180
      vertex -3.84473 4.82227 -180
      vertex -1.71777 2.62207 -180
    endloop
  endfacet
  facet normal 0 -0 -1
    outer loop
      vertex -1.05176 -0.763672 -180
      vertex 0.401367 -1.23633 -180
      vertex -1.33398 -2.5 -180
    endloop
  endfacet
  facet normal 0 0 -1
    outer loop
      vertex -2.61719 1.61719 -180
      vertex -4.81738 3.81738 -180
      vertex -1.71777 2.62207 -180
    endloop
  endfacet
  facet normal 0 0 -1
    outer loop
      vertex -2.5 -1.33398 -180
      vertex -2.5 1.33398 -180
      vertex -1.05176 -0.763672 -180
    endloop
  endfacet
  facet normal 0 0 -1
    outer loop
      vertex -2.5 1.33398 -180
      vertex -2.61719 1.61719 -180
      vertex -1.43066 2.5 -180
    endloop
  endfacet
  facet normal 0 0 -1
    outer loop
      vertex -2.5 -1.33398 -180
      vertex -1.33398 -2.5 -180
      vertex -1.61719 -2.61719 -180
    endloop
  endfacet
  facet normal 0 -0 -1
    outer loop
      vertex -2.61719 -1.61719 -180
      vertex -1.61719 -2.61719 -180
      vertex -3.81738 -4.81738 -180
    endloop
  endfacet
  facet normal 0 0 -1
    outer loop
      vertex -5.25293 -3.9043 -180
      vertex -4.81738 -3.81738 -180
      vertex -3.9043 -5.25293 -180
    endloop
  endfacet
  facet normal 0 0 -1
    outer loop
      vertex -4.81738 -3.81738 -180
      vertex -3.81738 -4.81738 -180
      vertex -3.9043 -5.25293 -180
    endloop
  endfacet
  facet normal -0 0 -1
    outer loop
      vertex -5.5 -3.53418 -180
      vertex -7.5 -6.90039 -180
      vertex -7.5 -1.7998 -180
    endloop
  endfacet
  facet normal -0 0 -1
    outer loop
      vertex -6.51367 -1.59961 -180
      vertex -7.5 -1.7998 -180
      vertex -7.2998 -1.59961 -180
    endloop
  endfacet
  facet normal 0 0 -1
    outer loop
      vertex -7.2998 -1.59961 -180
      vertex -7.5 -1.7998 -180
      vertex -7.44141 -1.6582 -180
    endloop
  endfacet
  facet normal 0 -0 -1
    outer loop
      vertex -6.51367 -1.59961 -180
      vertex -5.5 -2.5 -180
      vertex -7.5 -1.7998 -180
    endloop
  endfacet
  facet normal -0 -0 -1
    outer loop
      vertex -5.5 -2.5 -180
      vertex -5.5 -3.53418 -180
      vertex -7.5 -1.7998 -180
    endloop
  endfacet
  facet normal 0 0 -1
    outer loop
      vertex -5.25293 -3.9043 -180
      vertex -6.90039 -7.5 -180
      vertex -7.5 -6.90039 -180
    endloop
  endfacet
  facet normal -0 0 -1
    outer loop
      vertex -3.9043 -5.25293 -180
      vertex -6.90039 -7.5 -180
      vertex -5.25293 -3.9043 -180
    endloop
  endfacet
  facet normal 0 -0 -1
    outer loop
      vertex -3.9043 -5.25293 -180
      vertex -3.53418 -5.5 -180
      vertex -6.90039 -7.5 -180
    endloop
  endfacet
  facet normal 0 0 -1
    outer loop
      vertex -6.90039 -7.5 -180
      vertex -3.53418 -5.5 -180
      vertex -1.7998 -7.5 -180
    endloop
  endfacet
  facet normal 0 0 -1
    outer loop
      vertex -1.33398 -2.5 -180
      vertex 0.401367 -1.23633 -180
      vertex 1.43066 -2.5 -180
    endloop
  endfacet
  facet normal 0 0 -1
    outer loop
      vertex 0.401367 1.23633 -180
      vertex 2.5 1.33398 -180
      vertex 1.2998 0 -180
    endloop
  endfacet
  facet normal 0 0 -1
    outer loop
      vertex -2.5 -1.33398 -180
      vertex -1.05176 -0.763672 -180
      vertex -1.33398 -2.5 -180
    endloop
  endfacet
  facet normal 0 -0 -1
    outer loop
      vertex 2.5 1.33398 -180
      vertex 2.5 -1.33398 -180
      vertex 1.2998 0 -180
    endloop
  endfacet
  facet normal -0 0 -1
    outer loop
      vertex 0.401367 1.23633 -180
      vertex -1.05176 0.763672 -180
      vertex -1.43066 2.5 -180
    endloop
  endfacet
  facet normal 0 0 -1
    outer loop
      vertex -1.05176 0.763672 -180
      vertex -2.5 1.33398 -180
      vertex -1.43066 2.5 -180
    endloop
  endfacet
  facet normal -0 0 -1
    outer loop
      vertex 2.5 1.33398 -180
      vertex 0.401367 1.23633 -180
      vertex 1.43066 2.5 -180
    endloop
  endfacet
  facet normal 0 0 -1
    outer loop
      vertex 0.401367 1.23633 -180
      vertex -1.43066 2.5 -180
      vertex 1.43066 2.5 -180
    endloop
  endfacet
  facet normal 0 -0 -1
    outer loop
      vertex 1.2998 0 -180
      vertex 2.5 -1.33398 -180
      vertex 0.401367 -1.23633 -180
    endloop
  endfacet
  facet normal 0 0 1
    outer loop
      vertex 7.2998 -1.59961 180
      vertex 6.49707 -1.59961 180
      vertex 7.5 -1.7998 180
    endloop
  endfacet
  facet normal 0 0 1
    outer loop
      vertex -1.7998 -7.5 180
      vertex -1.6582 -7.44141 180
      vertex -1.59961 -7.2998 180
    endloop
  endfacet
  facet normal 0 0 1
    outer loop
      vertex -2.5 -5.5 180
      vertex -1.7998 -7.5 180
      vertex -1.59961 -6.5 180
    endloop
  endfacet
  facet normal 0 0 1
    outer loop
      vertex -1.59961 -6.5 180
      vertex -1.7998 -7.5 180
      vertex -1.59961 -7.2998 180
    endloop
  endfacet
  facet normal -0 0 1
    outer loop
      vertex -3.53418 -5.5 180
      vertex -1.7998 -7.5 180
      vertex -2.5 -5.5 180
    endloop
  endfacet
  facet normal 0 0 1
    outer loop
      vertex -6.90039 -7.5 180
      vertex -7.5 -6.90039 180
      vertex -7.32422 -7.32422 180
    endloop
  endfacet
  facet normal 0 0 1
    outer loop
      vertex -5.25293 -3.9043 180
      vertex -5.5 -3.53418 180
      vertex -7.5 -6.90039 180
    endloop
  endfacet
  facet normal -0 0 1
    outer loop
      vertex -7.5 6.90039 180
      vertex -3.9248 5.25586 180
      vertex -6.90039 7.5 180
    endloop
  endfacet
  facet normal 0 0 1
    outer loop
      vertex 1.7998 7.5 180
      vertex 2.5 5.5 180
      vertex 3.55664 5.5 180
    endloop
  endfacet
  facet normal 0 0 1
    outer loop
      vertex 1.7998 7.5 180
      vertex 1.59961 6.5 180
      vertex 2.5 5.5 180
    endloop
  endfacet
  facet normal 0 0 1
    outer loop
      vertex 6.49707 -1.59961 180
      vertex 5.5 -2.5 180
      vertex 7.5 -1.7998 180
    endloop
  endfacet
  facet normal 0 0 1
    outer loop
      vertex 7.5 -6.90039 180
      vertex 3.9248 -5.25586 180
      vertex 6.90039 -7.5 180
    endloop
  endfacet
  facet normal 0 0 1
    outer loop
      vertex 7.5 -6.90039 180
      vertex 6.90039 -7.5 180
      vertex 7.32422 -7.32422 180
    endloop
  endfacet
  facet normal -0 0 1
    outer loop
      vertex 1.59961 -7.2998 180
      vertex 1.7998 -7.5 180
      vertex 1.59961 -6.5 180
    endloop
  endfacet
  facet normal -0 -0 1
    outer loop
      vertex 1.6582 -7.44141 180
      vertex 1.7998 -7.5 180
      vertex 1.59961 -7.2998 180
    endloop
  endfacet
  facet normal 0 -0 1
    outer loop
      vertex 1.7998 -7.5 180
      vertex 2.5 -5.5 180
      vertex 1.59961 -6.5 180
    endloop
  endfacet
  facet normal 0 0 1
    outer loop
      vertex 1.7998 -7.5 180
      vertex 3.55664 -5.5 180
      vertex 2.5 -5.5 180
    endloop
  endfacet
  facet normal 0 0 1
    outer loop
      vertex 6.90039 -7.5 180
      vertex 3.55664 -5.5 180
      vertex 1.7998 -7.5 180
    endloop
  endfacet
  facet normal 0 0 1
    outer loop
      vertex 3.9248 -5.25586 180
      vertex 3.55664 -5.5 180
      vertex 6.90039 -7.5 180
    endloop
  endfacet
  facet normal 0 0 1
    outer loop
      vertex 7.5 -1.7998 180
      vertex 5.5 -2.5 180
      vertex 5.5 -3.53418 180
    endloop
  endfacet
  facet normal 0 0 1
    outer loop
      vertex 7.44141 -1.6582 180
      vertex 7.2998 -1.59961 180
      vertex 7.5 -1.7998 180
    endloop
  endfacet
  facet normal 0 0 1
    outer loop
      vertex 4.81738 -3.81738 180
      vertex 2.61719 -1.61719 180
      vertex 1.71777 -2.62207 180
    endloop
  endfacet
  facet normal 0 0 1
    outer loop
      vertex 2.61719 -1.61719 180
      vertex 1.43066 -2.5 180
      vertex 1.71777 -2.62207 180
    endloop
  endfacet
  facet normal -0 0 1
    outer loop
      vertex 3.84473 -4.82227 180
      vertex 3.9248 -5.25586 180
      vertex 5.25293 -3.9043 180
    endloop
  endfacet
  facet normal 0 -0 1
    outer loop
      vertex 7.5 -6.90039 180
      vertex 7.5 -1.7998 180
      vertex 5.5 -3.53418 180
    endloop
  endfacet
  facet normal 0 0 1
    outer loop
      vertex 7.5 -6.90039 180
      vertex 5.25293 -3.9043 180
      vertex 3.9248 -5.25586 180
    endloop
  endfacet
  facet normal 0 0 1
    outer loop
      vertex 7.5 -6.90039 180
      vertex 5.5 -3.53418 180
      vertex 5.25293 -3.9043 180
    endloop
  endfacet
  facet normal 0 -0 1
    outer loop
      vertex 3.84473 -4.82227 180
      vertex 4.81738 -3.81738 180
      vertex 1.71777 -2.62207 180
    endloop
  endfacet
  facet normal 0 0 1
    outer loop
      vertex 3.84473 -4.82227 180
      vertex 5.25293 -3.9043 180
      vertex 4.81738 -3.81738 180
    endloop
  endfacet
  facet normal 0 0 1
    outer loop
      vertex 0.401367 -1.23633 180
      vertex 1.43066 -2.5 180
      vertex 2.5 -1.33398 180
    endloop
  endfacet
  facet normal 0 0 1
    outer loop
      vertex 2.5 -1.33398 180
      vertex 1.43066 -2.5 180
      vertex 2.61719 -1.61719 180
    endloop
  endfacet
  facet normal 0 0 1
    outer loop
      vertex 1.59961 6.5 180
      vertex 1.7998 7.5 180
      vertex 1.59961 7.2998 180
    endloop
  endfacet
  facet normal 0 -0 1
    outer loop
      vertex 3.55664 5.5 180
      vertex 6.90039 7.5 180
      vertex 1.7998 7.5 180
    endloop
  endfacet
  facet normal 0 0 1
    outer loop
      vertex 7.5 6.90039 180
      vertex 6.90039 7.5 180
      vertex 3.9248 5.25586 180
    endloop
  endfacet
  facet normal 0 0 1
    outer loop
      vertex 7.32422 7.32422 180
      vertex 6.90039 7.5 180
      vertex 7.5 6.90039 180
    endloop
  endfacet
  facet normal 0 -0 1
    outer loop
      vertex 7.2998 1.59961 180
      vertex 7.5 1.7998 180
      vertex 6.5 1.59961 180
    endloop
  endfacet
  facet normal 0 -0 1
    outer loop
      vertex 7.44141 1.6582 180
      vertex 7.5 1.7998 180
      vertex 7.2998 1.59961 180
    endloop
  endfacet
  facet normal 0 0 1
    outer loop
      vertex 7.5 1.7998 180
      vertex 5.5 2.5 180
      vertex 6.5 1.59961 180
    endloop
  endfacet
  facet normal 0 0 1
    outer loop
      vertex 7.5 1.7998 180
      vertex 5.5 3.53418 180
      vertex 5.5 2.5 180
    endloop
  endfacet
  facet normal 0 0 1
    outer loop
      vertex 7.5 6.90039 180
      vertex 5.5 3.53418 180
      vertex 7.5 1.7998 180
    endloop
  endfacet
  facet normal -0 0 1
    outer loop
      vertex 5.25293 3.9043 180
      vertex 5.5 3.53418 180
      vertex 7.5 6.90039 180
    endloop
  endfacet
  facet normal 0 0 1
    outer loop
      vertex 1.59961 7.2998 180
      vertex 1.7998 7.5 180
      vertex 1.6582 7.44141 180
    endloop
  endfacet
  facet normal 0 0 1
    outer loop
      vertex 3.84473 4.82227 180
      vertex 1.71777 2.62207 180
      vertex 4.81738 3.81738 180
    endloop
  endfacet
  facet normal 0 0 1
    outer loop
      vertex -2.5 1.33398 180
      vertex -1.05176 -0.763672 180
      vertex -1.05176 0.763672 180
    endloop
  endfacet
  facet normal -0 0 1
    outer loop
      vertex 1.71777 2.62207 180
      vertex 2.61719 1.61719 180
      vertex 4.81738 3.81738 180
    endloop
  endfacet
  facet normal 0 0 1
    outer loop
      vertex 5.25293 3.9043 180
      vertex 3.9248 5.25586 180
      vertex 3.84473 4.82227 180
    endloop
  endfacet
  facet normal 0 -0 1
    outer loop
      vertex 3.9248 5.25586 180
      vertex 6.90039 7.5 180
      vertex 3.55664 5.5 180
    endloop
  endfacet
  facet normal 0 -0 1
    outer loop
      vertex 5.25293 3.9043 180
      vertex 7.5 6.90039 180
      vertex 3.9248 5.25586 180
    endloop
  endfacet
  facet normal 0 -0 1
    outer loop
      vertex 4.81738 3.81738 180
      vertex 5.25293 3.9043 180
      vertex 3.84473 4.82227 180
    endloop
  endfacet
  facet normal 0 -0 1
    outer loop
      vertex 2.5 1.33398 180
      vertex 2.61719 1.61719 180
      vertex 1.43066 2.5 180
    endloop
  endfacet
  facet normal -0 0 1
    outer loop
      vertex 1.43066 2.5 180
      vertex 2.61719 1.61719 180
      vertex 1.71777 2.62207 180
    endloop
  endfacet
  facet normal 0 0 1
    outer loop
      vertex -6.48633 1.59961 180
      vertex -7.5 1.7998 180
      vertex -7.2998 1.59961 180
    endloop
  endfacet
  facet normal 0 0 1
    outer loop
      vertex -1.71777 2.62207 180
      vertex -2.61719 1.61719 180
      vertex -1.43066 2.5 180
    endloop
  endfacet
  facet normal 0 0 1
    outer loop
      vertex -7.5 1.7998 180
      vertex -7.44141 1.6582 180
      vertex -7.2998 1.59961 180
    endloop
  endfacet
  facet normal 0 0 1
    outer loop
      vertex -6.90039 7.5 180
      vertex -7.32422 7.32422 180
      vertex -7.5 6.90039 180
    endloop
  endfacet
  facet normal 0 0 1
    outer loop
      vertex -5.5 3.53418 180
      vertex -7.5 6.90039 180
      vertex -7.5 1.7998 180
    endloop
  endfacet
  facet normal 0 0 1
    outer loop
      vertex -1.59961 7.2998 180
      vertex -1.7998 7.5 180
      vertex -1.59961 6.5 180
    endloop
  endfacet
  facet normal 0 0 1
    outer loop
      vertex -1.6582 7.44141 180
      vertex -1.7998 7.5 180
      vertex -1.59961 7.2998 180
    endloop
  endfacet
  facet normal 0 0 1
    outer loop
      vertex -1.7998 7.5 180
      vertex -2.5 5.5 180
      vertex -1.59961 6.5 180
    endloop
  endfacet
  facet normal 0 0 1
    outer loop
      vertex -1.7998 7.5 180
      vertex -3.55664 5.5 180
      vertex -2.5 5.5 180
    endloop
  endfacet
  facet normal -0 0 1
    outer loop
      vertex -6.90039 7.5 180
      vertex -3.55664 5.5 180
      vertex -1.7998 7.5 180
    endloop
  endfacet
  facet normal 0 -0 1
    outer loop
      vertex -3.9248 5.25586 180
      vertex -3.55664 5.5 180
      vertex -6.90039 7.5 180
    endloop
  endfacet
  facet normal 0 0 1
    outer loop
      vertex -5.5 3.53418 180
      vertex -7.5 1.7998 180
      vertex -5.5 2.5 180
    endloop
  endfacet
  facet normal 0 0 1
    outer loop
      vertex -2.5 -1.33398 180
      vertex -2.61719 -1.61719 180
      vertex -1.61719 -2.61719 180
    endloop
  endfacet
  facet normal -0 0 1
    outer loop
      vertex -4.81738 -3.81738 180
      vertex -3.81738 -4.81738 180
      vertex -2.61719 -1.61719 180
    endloop
  endfacet
  facet normal 0 -0 1
    outer loop
      vertex -6.48633 1.59961 180
      vertex -5.5 2.5 180
      vertex -7.5 1.7998 180
    endloop
  endfacet
  facet normal 0 0 1
    outer loop
      vertex -5.25293 3.9043 180
      vertex -3.84473 4.82227 180
      vertex -3.9248 5.25586 180
    endloop
  endfacet
  facet normal 0 -0 1
    outer loop
      vertex -4.81738 3.81738 180
      vertex -3.84473 4.82227 180
      vertex -5.25293 3.9043 180
    endloop
  endfacet
  facet normal 0 0 1
    outer loop
      vertex -5.25293 3.9043 180
      vertex -7.5 6.90039 180
      vertex -5.5 3.53418 180
    endloop
  endfacet
  facet normal 0 0 1
    outer loop
      vertex -3.9248 5.25586 180
      vertex -7.5 6.90039 180
      vertex -5.25293 3.9043 180
    endloop
  endfacet
  facet normal 0 0 1
    outer loop
      vertex -1.71777 2.62207 180
      vertex -3.84473 4.82227 180
      vertex -4.81738 3.81738 180
    endloop
  endfacet
  facet normal 0 0 1
    outer loop
      vertex -1.33398 -2.5 180
      vertex 0.401367 -1.23633 180
      vertex -1.05176 -0.763672 180
    endloop
  endfacet
  facet normal 0 0 1
    outer loop
      vertex -1.71777 2.62207 180
      vertex -4.81738 3.81738 180
      vertex -2.61719 1.61719 180
    endloop
  endfacet
  facet normal 0 0 1
    outer loop
      vertex -1.05176 -0.763672 180
      vertex -2.5 1.33398 180
      vertex -2.5 -1.33398 180
    endloop
  endfacet
  facet normal 0 0 1
    outer loop
      vertex -1.43066 2.5 180
      vertex -2.61719 1.61719 180
      vertex -2.5 1.33398 180
    endloop
  endfacet
  facet normal 0 -0 1
    outer loop
      vertex -1.61719 -2.61719 180
      vertex -1.33398 -2.5 180
      vertex -2.5 -1.33398 180
    endloop
  endfacet
  facet normal 0 0 1
    outer loop
      vertex -3.81738 -4.81738 180
      vertex -1.61719 -2.61719 180
      vertex -2.61719 -1.61719 180
    endloop
  endfacet
  facet normal 0 0 1
    outer loop
      vertex -3.9043 -5.25293 180
      vertex -4.81738 -3.81738 180
      vertex -5.25293 -3.9043 180
    endloop
  endfacet
  facet normal 0 -0 1
    outer loop
      vertex -3.9043 -5.25293 180
      vertex -3.81738 -4.81738 180
      vertex -4.81738 -3.81738 180
    endloop
  endfacet
  facet normal 0 0 1
    outer loop
      vertex -7.5 -1.7998 180
      vertex -7.5 -6.90039 180
      vertex -5.5 -3.53418 180
    endloop
  endfacet
  facet normal -0 0 1
    outer loop
      vertex -7.2998 -1.59961 180
      vertex -7.5 -1.7998 180
      vertex -6.51367 -1.59961 180
    endloop
  endfacet
  facet normal -0 0 1
    outer loop
      vertex -7.44141 -1.6582 180
      vertex -7.5 -1.7998 180
      vertex -7.2998 -1.59961 180
    endloop
  endfacet
  facet normal -0 0 1
    outer loop
      vertex -7.5 -1.7998 180
      vertex -5.5 -2.5 180
      vertex -6.51367 -1.59961 180
    endloop
  endfacet
  facet normal 0 0 1
    outer loop
      vertex -7.5 -1.7998 180
      vertex -5.5 -3.53418 180
      vertex -5.5 -2.5 180
    endloop
  endfacet
  facet normal -0 0 1
    outer loop
      vertex -7.5 -6.90039 180
      vertex -6.90039 -7.5 180
      vertex -5.25293 -3.9043 180
    endloop
  endfacet
  facet normal 0 0 1
    outer loop
      vertex -5.25293 -3.9043 180
      vertex -6.90039 -7.5 180
      vertex -3.9043 -5.25293 180
    endloop
  endfacet
  facet normal 0 0 1
    outer loop
      vertex -6.90039 -7.5 180
      vertex -3.53418 -5.5 180
      vertex -3.9043 -5.25293 180
    endloop
  endfacet
  facet normal 0 0 1
    outer loop
      vertex -1.7998 -7.5 180
      vertex -3.53418 -5.5 180
      vertex -6.90039 -7.5 180
    endloop
  endfacet
  facet normal 0 0 1
    outer loop
      vertex 1.43066 -2.5 180
      vertex 0.401367 -1.23633 180
      vertex -1.33398 -2.5 180
    endloop
  endfacet
  facet normal 0 -0 1
    outer loop
      vertex 1.2998 0 180
      vertex 2.5 1.33398 180
      vertex 0.401367 1.23633 180
    endloop
  endfacet
  facet normal 0 -0 1
    outer loop
      vertex -1.33398 -2.5 180
      vertex -1.05176 -0.763672 180
      vertex -2.5 -1.33398 180
    endloop
  endfacet
  facet normal -0 0 1
    outer loop
      vertex 1.2998 0 180
      vertex 2.5 -1.33398 180
      vertex 2.5 1.33398 180
    endloop
  endfacet
  facet normal 0 0 1
    outer loop
      vertex -1.43066 2.5 180
      vertex -1.05176 0.763672 180
      vertex 0.401367 1.23633 180
    endloop
  endfacet
  facet normal 0 0 1
    outer loop
      vertex -1.43066 2.5 180
      vertex -2.5 1.33398 180
      vertex -1.05176 0.763672 180
    endloop
  endfacet
  facet normal 0 0 1
    outer loop
      vertex 1.43066 2.5 180
      vertex 0.401367 1.23633 180
      vertex 2.5 1.33398 180
    endloop
  endfacet
  facet normal 0 0 1
    outer loop
      vertex 1.43066 2.5 180
      vertex -1.43066 2.5 180
      vertex 0.401367 1.23633 180
    endloop
  endfacet
  facet normal -0 0 1
    outer loop
      vertex 0.401367 -1.23633 180
      vertex 2.5 -1.33398 180
      vertex 1.2998 0 180
    endloop
  endfacet
  facet normal 0.924017 -0.382352 0
    outer loop
      vertex -1.59961 -7.2998 -180
      vertex -1.6582 -7.44141 180
      vertex -1.6582 -7.44141 -180
    endloop
  endfacet
  facet normal 0.924017 -0.382352 0
    outer loop
      vertex -1.59961 -7.2998 -180
      vertex -1.59961 -7.2998 180
      vertex -1.6582 -7.44141 180
    endloop
  endfacet
  facet normal 1 0 0
    outer loop
      vertex -1.59961 -6.5 -180
      vertex -1.59961 -7.2998 180
      vertex -1.59961 -7.2998 -180
    endloop
  endfacet
  facet normal 1 0 -0
    outer loop
      vertex -1.59961 -6.5 -180
      vertex -1.59961 -6.5 180
      vertex -1.59961 -7.2998 180
    endloop
  endfacet
  facet normal 0.74315 0.669125 0
    outer loop
      vertex -2.5 -5.5 -180
      vertex -1.59961 -6.5 180
      vertex -1.59961 -6.5 -180
    endloop
  endfacet
  facet normal 0.74315 0.669125 -0
    outer loop
      vertex -2.5 -5.5 -180
      vertex -2.5 -5.5 180
      vertex -1.59961 -6.5 180
    endloop
  endfacet
  facet normal 0 1 0
    outer loop
      vertex -3.53418 -5.5 -180
      vertex -2.5 -5.5 180
      vertex -2.5 -5.5 -180
    endloop
  endfacet
  facet normal 0 1 0
    outer loop
      vertex -3.53418 -5.5 -180
      vertex -3.53418 -5.5 180
      vertex -2.5 -5.5 180
    endloop
  endfacet
  facet normal 0.555207 0.831713 0
    outer loop
      vertex -3.9043 -5.25293 -180
      vertex -3.53418 -5.5 180
      vertex -3.53418 -5.5 -180
    endloop
  endfacet
  facet normal 0.555207 0.831713 -0
    outer loop
      vertex -3.9043 -5.25293 -180
      vertex -3.9043 -5.25293 180
      vertex -3.53418 -5.5 180
    endloop
  endfacet
  facet normal 0.980665 -0.195693 0
    outer loop
      vertex -3.81738 -4.81738 -180
      vertex -3.9043 -5.25293 180
      vertex -3.9043 -5.25293 -180
    endloop
  endfacet
  facet normal 0.980665 -0.195693 0
    outer loop
      vertex -3.81738 -4.81738 -180
      vertex -3.81738 -4.81738 180
      vertex -3.9043 -5.25293 180
    endloop
  endfacet
  facet normal 0.707107 -0.707107 0
    outer loop
      vertex -1.61719 -2.61719 -180
      vertex -3.81738 -4.81738 180
      vertex -3.81738 -4.81738 -180
    endloop
  endfacet
  facet normal 0.707107 -0.707107 0
    outer loop
      vertex -1.61719 -2.61719 -180
      vertex -1.61719 -2.61719 180
      vertex -3.81738 -4.81738 180
    endloop
  endfacet
  facet normal 0.382352 -0.924017 0
    outer loop
      vertex -1.33398 -2.5 -180
      vertex -1.61719 -2.61719 180
      vertex -1.61719 -2.61719 -180
    endloop
  endfacet
  facet normal 0.382352 -0.924017 0
    outer loop
      vertex -1.33398 -2.5 -180
      vertex -1.33398 -2.5 180
      vertex -1.61719 -2.61719 180
    endloop
  endfacet
  facet normal 0 -1 0
    outer loop
      vertex 1.43066 -2.5 -180
      vertex -1.33398 -2.5 180
      vertex -1.33398 -2.5 -180
    endloop
  endfacet
  facet normal 0 -1 0
    outer loop
      vertex 1.43066 -2.5 -180
      vertex 1.43066 -2.5 180
      vertex -1.33398 -2.5 180
    endloop
  endfacet
  facet normal -0.391273 -0.920275 0
    outer loop
      vertex 1.71777 -2.62207 -180
      vertex 1.43066 -2.5 180
      vertex 1.43066 -2.5 -180
    endloop
  endfacet
  facet normal -0.391273 -0.920275 0
    outer loop
      vertex 1.71777 -2.62207 -180
      vertex 1.71777 -2.62207 180
      vertex 1.43066 -2.5 180
    endloop
  endfacet
  facet normal -0.718972 -0.695039 0
    outer loop
      vertex 3.84473 -4.82227 -180
      vertex 1.71777 -2.62207 180
      vertex 1.71777 -2.62207 -180
    endloop
  endfacet
  facet normal -0.718972 -0.695039 0
    outer loop
      vertex 3.84473 -4.82227 -180
      vertex 3.84473 -4.82227 180
      vertex 1.71777 -2.62207 180
    endloop
  endfacet
  facet normal -0.98337 -0.181613 0
    outer loop
      vertex 3.9248 -5.25586 -180
      vertex 3.84473 -4.82227 180
      vertex 3.84473 -4.82227 -180
    endloop
  endfacet
  facet normal -0.98337 -0.181613 0
    outer loop
      vertex 3.9248 -5.25586 -180
      vertex 3.9248 -5.25586 180
      vertex 3.84473 -4.82227 180
    endloop
  endfacet
  facet normal -0.552658 0.833408 0
    outer loop
      vertex 3.55664 -5.5 -180
      vertex 3.9248 -5.25586 180
      vertex 3.9248 -5.25586 -180
    endloop
  endfacet
  facet normal -0.552658 0.833408 0
    outer loop
      vertex 3.55664 -5.5 -180
      vertex 3.55664 -5.5 180
      vertex 3.9248 -5.25586 180
    endloop
  endfacet
  facet normal 0 1 0
    outer loop
      vertex 2.5 -5.5 -180
      vertex 3.55664 -5.5 180
      vertex 3.55664 -5.5 -180
    endloop
  endfacet
  facet normal 0 1 0
    outer loop
      vertex 2.5 -5.5 -180
      vertex 2.5 -5.5 180
      vertex 3.55664 -5.5 180
    endloop
  endfacet
  facet normal -0.74315 0.669125 0
    outer loop
      vertex 1.59961 -6.5 -180
      vertex 2.5 -5.5 180
      vertex 2.5 -5.5 -180
    endloop
  endfacet
  facet normal -0.74315 0.669125 0
    outer loop
      vertex 1.59961 -6.5 -180
      vertex 1.59961 -6.5 180
      vertex 2.5 -5.5 180
    endloop
  endfacet
  facet normal -1 0 0
    outer loop
      vertex 1.59961 -7.2998 -180
      vertex 1.59961 -6.5 180
      vertex 1.59961 -6.5 -180
    endloop
  endfacet
  facet normal -1 0 0
    outer loop
      vertex 1.59961 -7.2998 -180
      vertex 1.59961 -7.2998 180
      vertex 1.59961 -6.5 180
    endloop
  endfacet
  facet normal -0.924017 -0.382352 0
    outer loop
      vertex 1.6582 -7.44141 -180
      vertex 1.59961 -7.2998 180
      vertex 1.59961 -7.2998 -180
    endloop
  endfacet
  facet normal -0.924017 -0.382352 0
    outer loop
      vertex 1.6582 -7.44141 -180
      vertex 1.6582 -7.44141 180
      vertex 1.59961 -7.2998 180
    endloop
  endfacet
  facet normal -0.382352 -0.924017 0
    outer loop
      vertex 1.7998 -7.5 -180
      vertex 1.6582 -7.44141 180
      vertex 1.6582 -7.44141 -180
    endloop
  endfacet
  facet normal -0.382352 -0.924017 0
    outer loop
      vertex 1.7998 -7.5 -180
      vertex 1.7998 -7.5 180
      vertex 1.6582 -7.44141 180
    endloop
  endfacet
  facet normal 0 -1 0
    outer loop
      vertex 6.90039 -7.5 -180
      vertex 1.7998 -7.5 180
      vertex 1.7998 -7.5 -180
    endloop
  endfacet
  facet normal 0 -1 0
    outer loop
      vertex 6.90039 -7.5 -180
      vertex 6.90039 -7.5 180
      vertex 1.7998 -7.5 180
    endloop
  endfacet
  facet normal 0.383104 -0.923705 0
    outer loop
      vertex 7.32422 -7.32422 -180
      vertex 6.90039 -7.5 180
      vertex 6.90039 -7.5 -180
    endloop
  endfacet
  facet normal 0.383104 -0.923705 0
    outer loop
      vertex 7.32422 -7.32422 -180
      vertex 7.32422 -7.32422 180
      vertex 6.90039 -7.5 180
    endloop
  endfacet
  facet normal 0.923705 -0.383104 0
    outer loop
      vertex 7.5 -6.90039 -180
      vertex 7.32422 -7.32422 180
      vertex 7.32422 -7.32422 -180
    endloop
  endfacet
  facet normal 0.923705 -0.383104 0
    outer loop
      vertex 7.5 -6.90039 -180
      vertex 7.5 -6.90039 180
      vertex 7.32422 -7.32422 180
    endloop
  endfacet
  facet normal 1 0 0
    outer loop
      vertex 7.5 -1.7998 -180
      vertex 7.5 -6.90039 180
      vertex 7.5 -6.90039 -180
    endloop
  endfacet
  facet normal 1 0 -0
    outer loop
      vertex 7.5 -1.7998 -180
      vertex 7.5 -1.7998 180
      vertex 7.5 -6.90039 180
    endloop
  endfacet
  facet normal 0.924017 0.382352 0
    outer loop
      vertex 7.44141 -1.6582 -180
      vertex 7.5 -1.7998 180
      vertex 7.5 -1.7998 -180
    endloop
  endfacet
  facet normal 0.924017 0.382352 -0
    outer loop
      vertex 7.44141 -1.6582 -180
      vertex 7.44141 -1.6582 180
      vertex 7.5 -1.7998 180
    endloop
  endfacet
  facet normal 0.382352 0.924017 0
    outer loop
      vertex 7.2998 -1.59961 -180
      vertex 7.44141 -1.6582 180
      vertex 7.44141 -1.6582 -180
    endloop
  endfacet
  facet normal 0.382352 0.924017 -0
    outer loop
      vertex 7.2998 -1.59961 -180
      vertex 7.2998 -1.59961 180
      vertex 7.44141 -1.6582 180
    endloop
  endfacet
  facet normal 0 1 0
    outer loop
      vertex 6.49707 -1.59961 -180
      vertex 7.2998 -1.59961 180
      vertex 7.2998 -1.59961 -180
    endloop
  endfacet
  facet normal 0 1 0
    outer loop
      vertex 6.49707 -1.59961 -180
      vertex 6.49707 -1.59961 180
      vertex 7.2998 -1.59961 180
    endloop
  endfacet
  facet normal -0.670209 0.742173 0
    outer loop
      vertex 5.5 -2.5 -180
      vertex 6.49707 -1.59961 180
      vertex 6.49707 -1.59961 -180
    endloop
  endfacet
  facet normal -0.670209 0.742173 0
    outer loop
      vertex 5.5 -2.5 -180
      vertex 5.5 -2.5 180
      vertex 6.49707 -1.59961 180
    endloop
  endfacet
  facet normal -1 0 0
    outer loop
      vertex 5.5 -3.53418 -180
      vertex 5.5 -2.5 180
      vertex 5.5 -2.5 -180
    endloop
  endfacet
  facet normal -1 0 0
    outer loop
      vertex 5.5 -3.53418 -180
      vertex 5.5 -3.53418 180
      vertex 5.5 -2.5 180
    endloop
  endfacet
  facet normal -0.831713 0.555207 0
    outer loop
      vertex 5.25293 -3.9043 -180
      vertex 5.5 -3.53418 180
      vertex 5.5 -3.53418 -180
    endloop
  endfacet
  facet normal -0.831713 0.555207 0
    outer loop
      vertex 5.25293 -3.9043 -180
      vertex 5.25293 -3.9043 180
      vertex 5.5 -3.53418 180
    endloop
  endfacet
  facet normal 0.195693 0.980665 0
    outer loop
      vertex 4.81738 -3.81738 -180
      vertex 5.25293 -3.9043 180
      vertex 5.25293 -3.9043 -180
    endloop
  endfacet
  facet normal 0.195693 0.980665 -0
    outer loop
      vertex 4.81738 -3.81738 -180
      vertex 4.81738 -3.81738 180
      vertex 5.25293 -3.9043 180
    endloop
  endfacet
  facet normal 0.707107 0.707107 0
    outer loop
      vertex 2.61719 -1.61719 -180
      vertex 4.81738 -3.81738 180
      vertex 4.81738 -3.81738 -180
    endloop
  endfacet
  facet normal 0.707107 0.707107 -0
    outer loop
      vertex 2.61719 -1.61719 -180
      vertex 2.61719 -1.61719 180
      vertex 4.81738 -3.81738 180
    endloop
  endfacet
  facet normal 0.924017 0.382352 0
    outer loop
      vertex 2.5 -1.33398 -180
      vertex 2.61719 -1.61719 180
      vertex 2.61719 -1.61719 -180
    endloop
  endfacet
  facet normal 0.924017 0.382352 -0
    outer loop
      vertex 2.5 -1.33398 -180
      vertex 2.5 -1.33398 180
      vertex 2.61719 -1.61719 180
    endloop
  endfacet
  facet normal 1 0 0
    outer loop
      vertex 2.5 1.33398 -180
      vertex 2.5 -1.33398 180
      vertex 2.5 -1.33398 -180
    endloop
  endfacet
  facet normal 1 0 -0
    outer loop
      vertex 2.5 1.33398 -180
      vertex 2.5 1.33398 180
      vertex 2.5 -1.33398 180
    endloop
  endfacet
  facet normal 0.924017 -0.382352 0
    outer loop
      vertex 2.61719 1.61719 -180
      vertex 2.5 1.33398 180
      vertex 2.5 1.33398 -180
    endloop
  endfacet
  facet normal 0.924017 -0.382352 0
    outer loop
      vertex 2.61719 1.61719 -180
      vertex 2.61719 1.61719 180
      vertex 2.5 1.33398 180
    endloop
  endfacet
  facet normal 0.707107 -0.707107 0
    outer loop
      vertex 4.81738 3.81738 -180
      vertex 2.61719 1.61719 180
      vertex 2.61719 1.61719 -180
    endloop
  endfacet
  facet normal 0.707107 -0.707107 0
    outer loop
      vertex 4.81738 3.81738 -180
      vertex 4.81738 3.81738 180
      vertex 2.61719 1.61719 180
    endloop
  endfacet
  facet normal 0.195693 -0.980665 0
    outer loop
      vertex 5.25293 3.9043 -180
      vertex 4.81738 3.81738 180
      vertex 4.81738 3.81738 -180
    endloop
  endfacet
  facet normal 0.195693 -0.980665 0
    outer loop
      vertex 5.25293 3.9043 -180
      vertex 5.25293 3.9043 180
      vertex 4.81738 3.81738 180
    endloop
  endfacet
  facet normal -0.831713 -0.555207 0
    outer loop
      vertex 5.5 3.53418 -180
      vertex 5.25293 3.9043 180
      vertex 5.25293 3.9043 -180
    endloop
  endfacet
  facet normal -0.831713 -0.555207 0
    outer loop
      vertex 5.5 3.53418 -180
      vertex 5.5 3.53418 180
      vertex 5.25293 3.9043 180
    endloop
  endfacet
  facet normal -1 0 0
    outer loop
      vertex 5.5 2.5 -180
      vertex 5.5 3.53418 180
      vertex 5.5 3.53418 -180
    endloop
  endfacet
  facet normal -1 0 0
    outer loop
      vertex 5.5 2.5 -180
      vertex 5.5 2.5 180
      vertex 5.5 3.53418 180
    endloop
  endfacet
  facet normal -0.669125 -0.74315 0
    outer loop
      vertex 6.5 1.59961 -180
      vertex 5.5 2.5 180
      vertex 5.5 2.5 -180
    endloop
  endfacet
  facet normal -0.669125 -0.74315 0
    outer loop
      vertex 6.5 1.59961 -180
      vertex 6.5 1.59961 180
      vertex 5.5 2.5 180
    endloop
  endfacet
  facet normal 0 -1 0
    outer loop
      vertex 7.2998 1.59961 -180
      vertex 6.5 1.59961 180
      vertex 6.5 1.59961 -180
    endloop
  endfacet
  facet normal 0 -1 0
    outer loop
      vertex 7.2998 1.59961 -180
      vertex 7.2998 1.59961 180
      vertex 6.5 1.59961 180
    endloop
  endfacet
  facet normal 0.382352 -0.924017 0
    outer loop
      vertex 7.44141 1.6582 -180
      vertex 7.2998 1.59961 180
      vertex 7.2998 1.59961 -180
    endloop
  endfacet
  facet normal 0.382352 -0.924017 0
    outer loop
      vertex 7.44141 1.6582 -180
      vertex 7.44141 1.6582 180
      vertex 7.2998 1.59961 180
    endloop
  endfacet
  facet normal 0.924017 -0.382352 0
    outer loop
      vertex 7.5 1.7998 -180
      vertex 7.44141 1.6582 180
      vertex 7.44141 1.6582 -180
    endloop
  endfacet
  facet normal 0.924017 -0.382352 0
    outer loop
      vertex 7.5 1.7998 -180
      vertex 7.5 1.7998 180
      vertex 7.44141 1.6582 180
    endloop
  endfacet
  facet normal 1 0 0
    outer loop
      vertex 7.5 6.90039 -180
      vertex 7.5 1.7998 180
      vertex 7.5 1.7998 -180
    endloop
  endfacet
  facet normal 1 0 -0
    outer loop
      vertex 7.5 6.90039 -180
      vertex 7.5 6.90039 180
      vertex 7.5 1.7998 180
    endloop
  endfacet
  facet normal 0.923705 0.383104 0
    outer loop
      vertex 7.32422 7.32422 -180
      vertex 7.5 6.90039 180
      vertex 7.5 6.90039 -180
    endloop
  endfacet
  facet normal 0.923705 0.383104 -0
    outer loop
      vertex 7.32422 7.32422 -180
      vertex 7.32422 7.32422 180
      vertex 7.5 6.90039 180
    endloop
  endfacet
  facet normal 0.383104 0.923705 0
    outer loop
      vertex 6.90039 7.5 -180
      vertex 7.32422 7.32422 180
      vertex 7.32422 7.32422 -180
    endloop
  endfacet
  facet normal 0.383104 0.923705 -0
    outer loop
      vertex 6.90039 7.5 -180
      vertex 6.90039 7.5 180
      vertex 7.32422 7.32422 180
    endloop
  endfacet
  facet normal 0 1 0
    outer loop
      vertex 1.7998 7.5 -180
      vertex 6.90039 7.5 180
      vertex 6.90039 7.5 -180
    endloop
  endfacet
  facet normal 0 1 0
    outer loop
      vertex 1.7998 7.5 -180
      vertex 1.7998 7.5 180
      vertex 6.90039 7.5 180
    endloop
  endfacet
  facet normal -0.382352 0.924017 0
    outer loop
      vertex 1.6582 7.44141 -180
      vertex 1.7998 7.5 180
      vertex 1.7998 7.5 -180
    endloop
  endfacet
  facet normal -0.382352 0.924017 0
    outer loop
      vertex 1.6582 7.44141 -180
      vertex 1.6582 7.44141 180
      vertex 1.7998 7.5 180
    endloop
  endfacet
  facet normal -0.924017 0.382352 0
    outer loop
      vertex 1.59961 7.2998 -180
      vertex 1.6582 7.44141 180
      vertex 1.6582 7.44141 -180
    endloop
  endfacet
  facet normal -0.924017 0.382352 0
    outer loop
      vertex 1.59961 7.2998 -180
      vertex 1.59961 7.2998 180
      vertex 1.6582 7.44141 180
    endloop
  endfacet
  facet normal -1 0 0
    outer loop
      vertex 1.59961 6.5 -180
      vertex 1.59961 7.2998 180
      vertex 1.59961 7.2998 -180
    endloop
  endfacet
  facet normal -1 0 0
    outer loop
      vertex 1.59961 6.5 -180
      vertex 1.59961 6.5 180
      vertex 1.59961 7.2998 180
    endloop
  endfacet
  facet normal -0.74315 -0.669125 0
    outer loop
      vertex 2.5 5.5 -180
      vertex 1.59961 6.5 180
      vertex 1.59961 6.5 -180
    endloop
  endfacet
  facet normal -0.74315 -0.669125 0
    outer loop
      vertex 2.5 5.5 -180
      vertex 2.5 5.5 180
      vertex 1.59961 6.5 180
    endloop
  endfacet
  facet normal 0 -1 0
    outer loop
      vertex 3.55664 5.5 -180
      vertex 2.5 5.5 180
      vertex 2.5 5.5 -180
    endloop
  endfacet
  facet normal 0 -1 0
    outer loop
      vertex 3.55664 5.5 -180
      vertex 3.55664 5.5 180
      vertex 2.5 5.5 180
    endloop
  endfacet
  facet normal -0.552658 -0.833408 0
    outer loop
      vertex 3.9248 5.25586 -180
      vertex 3.55664 5.5 180
      vertex 3.55664 5.5 -180
    endloop
  endfacet
  facet normal -0.552658 -0.833408 0
    outer loop
      vertex 3.9248 5.25586 -180
      vertex 3.9248 5.25586 180
      vertex 3.55664 5.5 180
    endloop
  endfacet
  facet normal -0.98337 0.181613 0
    outer loop
      vertex 3.84473 4.82227 -180
      vertex 3.9248 5.25586 180
      vertex 3.9248 5.25586 -180
    endloop
  endfacet
  facet normal -0.98337 0.181613 0
    outer loop
      vertex 3.84473 4.82227 -180
      vertex 3.84473 4.82227 180
      vertex 3.9248 5.25586 180
    endloop
  endfacet
  facet normal -0.718972 0.695039 0
    outer loop
      vertex 1.71777 2.62207 -180
      vertex 3.84473 4.82227 180
      vertex 3.84473 4.82227 -180
    endloop
  endfacet
  facet normal -0.718972 0.695039 0
    outer loop
      vertex 1.71777 2.62207 -180
      vertex 1.71777 2.62207 180
      vertex 3.84473 4.82227 180
    endloop
  endfacet
  facet normal -0.391273 0.920275 0
    outer loop
      vertex 1.43066 2.5 -180
      vertex 1.71777 2.62207 180
      vertex 1.71777 2.62207 -180
    endloop
  endfacet
  facet normal -0.391273 0.920275 0
    outer loop
      vertex 1.43066 2.5 -180
      vertex 1.43066 2.5 180
      vertex 1.71777 2.62207 180
    endloop
  endfacet
  facet normal 0 1 0
    outer loop
      vertex -1.43066 2.5 -180
      vertex 1.43066 2.5 180
      vertex 1.43066 2.5 -180
    endloop
  endfacet
  facet normal 0 1 0
    outer loop
      vertex -1.43066 2.5 -180
      vertex -1.43066 2.5 180
      vertex 1.43066 2.5 180
    endloop
  endfacet
  facet normal 0.391273 0.920275 0
    outer loop
      vertex -1.71777 2.62207 -180
      vertex -1.43066 2.5 180
      vertex -1.43066 2.5 -180
    endloop
  endfacet
  facet normal 0.391273 0.920275 -0
    outer loop
      vertex -1.71777 2.62207 -180
      vertex -1.71777 2.62207 180
      vertex -1.43066 2.5 180
    endloop
  endfacet
  facet normal 0.718972 0.695039 0
    outer loop
      vertex -3.84473 4.82227 -180
      vertex -1.71777 2.62207 180
      vertex -1.71777 2.62207 -180
    endloop
  endfacet
  facet normal 0.718972 0.695039 -0
    outer loop
      vertex -3.84473 4.82227 -180
      vertex -3.84473 4.82227 180
      vertex -1.71777 2.62207 180
    endloop
  endfacet
  facet normal 0.98337 0.181613 0
    outer loop
      vertex -3.9248 5.25586 -180
      vertex -3.84473 4.82227 180
      vertex -3.84473 4.82227 -180
    endloop
  endfacet
  facet normal 0.98337 0.181613 -0
    outer loop
      vertex -3.9248 5.25586 -180
      vertex -3.9248 5.25586 180
      vertex -3.84473 4.82227 180
    endloop
  endfacet
  facet normal 0.552658 -0.833408 0
    outer loop
      vertex -3.55664 5.5 -180
      vertex -3.9248 5.25586 180
      vertex -3.9248 5.25586 -180
    endloop
  endfacet
  facet normal 0.552658 -0.833408 0
    outer loop
      vertex -3.55664 5.5 -180
      vertex -3.55664 5.5 180
      vertex -3.9248 5.25586 180
    endloop
  endfacet
  facet normal 0 -1 0
    outer loop
      vertex -2.5 5.5 -180
      vertex -3.55664 5.5 180
      vertex -3.55664 5.5 -180
    endloop
  endfacet
  facet normal 0 -1 0
    outer loop
      vertex -2.5 5.5 -180
      vertex -2.5 5.5 180
      vertex -3.55664 5.5 180
    endloop
  endfacet
  facet normal 0.74315 -0.669125 0
    outer loop
      vertex -1.59961 6.5 -180
      vertex -2.5 5.5 180
      vertex -2.5 5.5 -180
    endloop
  endfacet
  facet normal 0.74315 -0.669125 0
    outer loop
      vertex -1.59961 6.5 -180
      vertex -1.59961 6.5 180
      vertex -2.5 5.5 180
    endloop
  endfacet
  facet normal 1 0 0
    outer loop
      vertex -1.59961 7.2998 -180
      vertex -1.59961 6.5 180
      vertex -1.59961 6.5 -180
    endloop
  endfacet
  facet normal 1 0 -0
    outer loop
      vertex -1.59961 7.2998 -180
      vertex -1.59961 7.2998 180
      vertex -1.59961 6.5 180
    endloop
  endfacet
  facet normal 0.924017 0.382352 0
    outer loop
      vertex -1.6582 7.44141 -180
      vertex -1.59961 7.2998 180
      vertex -1.59961 7.2998 -180
    endloop
  endfacet
  facet normal 0.924017 0.382352 -0
    outer loop
      vertex -1.6582 7.44141 -180
      vertex -1.6582 7.44141 180
      vertex -1.59961 7.2998 180
    endloop
  endfacet
  facet normal 0.382352 0.924017 0
    outer loop
      vertex -1.7998 7.5 -180
      vertex -1.6582 7.44141 180
      vertex -1.6582 7.44141 -180
    endloop
  endfacet
  facet normal 0.382352 0.924017 -0
    outer loop
      vertex -1.7998 7.5 -180
      vertex -1.7998 7.5 180
      vertex -1.6582 7.44141 180
    endloop
  endfacet
  facet normal 0 1 0
    outer loop
      vertex -6.90039 7.5 -180
      vertex -1.7998 7.5 180
      vertex -1.7998 7.5 -180
    endloop
  endfacet
  facet normal 0 1 0
    outer loop
      vertex -6.90039 7.5 -180
      vertex -6.90039 7.5 180
      vertex -1.7998 7.5 180
    endloop
  endfacet
  facet normal -0.383104 0.923705 0
    outer loop
      vertex -7.32422 7.32422 -180
      vertex -6.90039 7.5 180
      vertex -6.90039 7.5 -180
    endloop
  endfacet
  facet normal -0.383104 0.923705 0
    outer loop
      vertex -7.32422 7.32422 -180
      vertex -7.32422 7.32422 180
      vertex -6.90039 7.5 180
    endloop
  endfacet
  facet normal -0.923705 0.383104 0
    outer loop
      vertex -7.5 6.90039 -180
      vertex -7.32422 7.32422 180
      vertex -7.32422 7.32422 -180
    endloop
  endfacet
  facet normal -0.923705 0.383104 0
    outer loop
      vertex -7.5 6.90039 -180
      vertex -7.5 6.90039 180
      vertex -7.32422 7.32422 180
    endloop
  endfacet
  facet normal -1 0 0
    outer loop
      vertex -7.5 1.7998 -180
      vertex -7.5 6.90039 180
      vertex -7.5 6.90039 -180
    endloop
  endfacet
  facet normal -1 0 0
    outer loop
      vertex -7.5 1.7998 -180
      vertex -7.5 1.7998 180
      vertex -7.5 6.90039 180
    endloop
  endfacet
  facet normal -0.924017 -0.382352 0
    outer loop
      vertex -7.44141 1.6582 -180
      vertex -7.5 1.7998 180
      vertex -7.5 1.7998 -180
    endloop
  endfacet
  facet normal -0.924017 -0.382352 0
    outer loop
      vertex -7.44141 1.6582 -180
      vertex -7.44141 1.6582 180
      vertex -7.5 1.7998 180
    endloop
  endfacet
  facet normal -0.382352 -0.924017 0
    outer loop
      vertex -7.2998 1.59961 -180
      vertex -7.44141 1.6582 180
      vertex -7.44141 1.6582 -180
    endloop
  endfacet
  facet normal -0.382352 -0.924017 0
    outer loop
      vertex -7.2998 1.59961 -180
      vertex -7.2998 1.59961 180
      vertex -7.44141 1.6582 180
    endloop
  endfacet
  facet normal 0 -1 0
    outer loop
      vertex -6.48633 1.59961 -180
      vertex -7.2998 1.59961 180
      vertex -7.2998 1.59961 -180
    endloop
  endfacet
  facet normal 0 -1 0
    outer loop
      vertex -6.48633 1.59961 -180
      vertex -6.48633 1.59961 180
      vertex -7.2998 1.59961 180
    endloop
  endfacet
  facet normal 0.6742 -0.738549 0
    outer loop
      vertex -5.5 2.5 -180
      vertex -6.48633 1.59961 180
      vertex -6.48633 1.59961 -180
    endloop
  endfacet
  facet normal 0.6742 -0.738549 0
    outer loop
      vertex -5.5 2.5 -180
      vertex -5.5 2.5 180
      vertex -6.48633 1.59961 180
    endloop
  endfacet
  facet normal 1 0 0
    outer loop
      vertex -5.5 3.53418 -180
      vertex -5.5 2.5 180
      vertex -5.5 2.5 -180
    endloop
  endfacet
  facet normal 1 0 -0
    outer loop
      vertex -5.5 3.53418 -180
      vertex -5.5 3.53418 180
      vertex -5.5 2.5 180
    endloop
  endfacet
  facet normal 0.831713 -0.555207 0
    outer loop
      vertex -5.25293 3.9043 -180
      vertex -5.5 3.53418 180
      vertex -5.5 3.53418 -180
    endloop
  endfacet
  facet normal 0.831713 -0.555207 0
    outer loop
      vertex -5.25293 3.9043 -180
      vertex -5.25293 3.9043 180
      vertex -5.5 3.53418 180
    endloop
  endfacet
  facet normal -0.195693 -0.980665 0
    outer loop
      vertex -4.81738 3.81738 -180
      vertex -5.25293 3.9043 180
      vertex -5.25293 3.9043 -180
    endloop
  endfacet
  facet normal -0.195693 -0.980665 0
    outer loop
      vertex -4.81738 3.81738 -180
      vertex -4.81738 3.81738 180
      vertex -5.25293 3.9043 180
    endloop
  endfacet
  facet normal -0.707107 -0.707107 0
    outer loop
      vertex -2.61719 1.61719 -180
      vertex -4.81738 3.81738 180
      vertex -4.81738 3.81738 -180
    endloop
  endfacet
  facet normal -0.707107 -0.707107 0
    outer loop
      vertex -2.61719 1.61719 -180
      vertex -2.61719 1.61719 180
      vertex -4.81738 3.81738 180
    endloop
  endfacet
  facet normal -0.924017 -0.382352 0
    outer loop
      vertex -2.5 1.33398 -180
      vertex -2.61719 1.61719 180
      vertex -2.61719 1.61719 -180
    endloop
  endfacet
  facet normal -0.924017 -0.382352 0
    outer loop
      vertex -2.5 1.33398 -180
      vertex -2.5 1.33398 180
      vertex -2.61719 1.61719 180
    endloop
  endfacet
  facet normal -1 0 0
    outer loop
      vertex -2.5 -1.33398 -180
      vertex -2.5 1.33398 180
      vertex -2.5 1.33398 -180
    endloop
  endfacet
  facet normal -1 0 0
    outer loop
      vertex -2.5 -1.33398 -180
      vertex -2.5 -1.33398 180
      vertex -2.5 1.33398 180
    endloop
  endfacet
  facet normal -0.924017 0.382352 0
    outer loop
      vertex -2.61719 -1.61719 -180
      vertex -2.5 -1.33398 180
      vertex -2.5 -1.33398 -180
    endloop
  endfacet
  facet normal -0.924017 0.382352 0
    outer loop
      vertex -2.61719 -1.61719 -180
      vertex -2.61719 -1.61719 180
      vertex -2.5 -1.33398 180
    endloop
  endfacet
  facet normal -0.707107 0.707107 0
    outer loop
      vertex -4.81738 -3.81738 -180
      vertex -2.61719 -1.61719 180
      vertex -2.61719 -1.61719 -180
    endloop
  endfacet
  facet normal -0.707107 0.707107 0
    outer loop
      vertex -4.81738 -3.81738 -180
      vertex -4.81738 -3.81738 180
      vertex -2.61719 -1.61719 180
    endloop
  endfacet
  facet normal -0.195693 0.980665 0
    outer loop
      vertex -5.25293 -3.9043 -180
      vertex -4.81738 -3.81738 180
      vertex -4.81738 -3.81738 -180
    endloop
  endfacet
  facet normal -0.195693 0.980665 0
    outer loop
      vertex -5.25293 -3.9043 -180
      vertex -5.25293 -3.9043 180
      vertex -4.81738 -3.81738 180
    endloop
  endfacet
  facet normal 0.831713 0.555207 0
    outer loop
      vertex -5.5 -3.53418 -180
      vertex -5.25293 -3.9043 180
      vertex -5.25293 -3.9043 -180
    endloop
  endfacet
  facet normal 0.831713 0.555207 -0
    outer loop
      vertex -5.5 -3.53418 -180
      vertex -5.5 -3.53418 180
      vertex -5.25293 -3.9043 180
    endloop
  endfacet
  facet normal 1 0 0
    outer loop
      vertex -5.5 -2.5 -180
      vertex -5.5 -3.53418 180
      vertex -5.5 -3.53418 -180
    endloop
  endfacet
  facet normal 1 0 -0
    outer loop
      vertex -5.5 -2.5 -180
      vertex -5.5 -2.5 180
      vertex -5.5 -3.53418 180
    endloop
  endfacet
  facet normal 0.664096 0.747648 0
    outer loop
      vertex -6.51367 -1.59961 -180
      vertex -5.5 -2.5 180
      vertex -5.5 -2.5 -180
    endloop
  endfacet
  facet normal 0.664096 0.747648 -0
    outer loop
      vertex -6.51367 -1.59961 -180
      vertex -6.51367 -1.59961 180
      vertex -5.5 -2.5 180
    endloop
  endfacet
  facet normal 0 1 0
    outer loop
      vertex -7.2998 -1.59961 -180
      vertex -6.51367 -1.59961 180
      vertex -6.51367 -1.59961 -180
    endloop
  endfacet
  facet normal 0 1 0
    outer loop
      vertex -7.2998 -1.59961 -180
      vertex -7.2998 -1.59961 180
      vertex -6.51367 -1.59961 180
    endloop
  endfacet
  facet normal -0.382352 0.924017 0
    outer loop
      vertex -7.44141 -1.6582 -180
      vertex -7.2998 -1.59961 180
      vertex -7.2998 -1.59961 -180
    endloop
  endfacet
  facet normal -0.382352 0.924017 0
    outer loop
      vertex -7.44141 -1.6582 -180
      vertex -7.44141 -1.6582 180
      vertex -7.2998 -1.59961 180
    endloop
  endfacet
  facet normal -0.924017 0.382352 0
    outer loop
      vertex -7.5 -1.7998 -180
      vertex -7.44141 -1.6582 180
      vertex -7.44141 -1.6582 -180
    endloop
  endfacet
  facet normal -0.924017 0.382352 0
    outer loop
      vertex -7.5 -1.7998 -180
      vertex -7.5 -1.7998 180
      vertex -7.44141 -1.6582 180
    endloop
  endfacet
  facet normal -1 0 0
    outer loop
      vertex -7.5 -6.90039 -180
      vertex -7.5 -1.7998 180
      vertex -7.5 -1.7998 -180
    endloop
  endfacet
  facet normal -1 0 0
    outer loop
      vertex -7.5 -6.90039 -180
      vertex -7.5 -6.90039 180
      vertex -7.5 -1.7998 180
    endloop
  endfacet
  facet normal -0.923705 -0.383104 0
    outer loop
      vertex -7.32422 -7.32422 -180
      vertex -7.5 -6.90039 180
      vertex -7.5 -6.90039 -180
    endloop
  endfacet
  facet normal -0.923705 -0.383104 0
    outer loop
      vertex -7.32422 -7.32422 -180
      vertex -7.32422 -7.32422 180
      vertex -7.5 -6.90039 180
    endloop
  endfacet
  facet normal -0.383104 -0.923705 0
    outer loop
      vertex -6.90039 -7.5 -180
      vertex -7.32422 -7.32422 180
      vertex -7.32422 -7.32422 -180
    endloop
  endfacet
  facet normal -0.383104 -0.923705 0
    outer loop
      vertex -6.90039 -7.5 -180
      vertex -6.90039 -7.5 180
      vertex -7.32422 -7.32422 180
    endloop
  endfacet
  facet normal 0 -1 0
    outer loop
      vertex -1.7998 -7.5 -180
      vertex -6.90039 -7.5 180
      vertex -6.90039 -7.5 -180
    endloop
  endfacet
  facet normal 0 -1 0
    outer loop
      vertex -1.7998 -7.5 -180
      vertex -1.7998 -7.5 180
      vertex -6.90039 -7.5 180
    endloop
  endfacet
  facet normal 0.382352 -0.924017 0
    outer loop
      vertex -1.6582 -7.44141 -180
      vertex -1.7998 -7.5 180
      vertex -1.7998 -7.5 -180
    endloop
  endfacet
  facet normal 0.382352 -0.924017 0
    outer loop
      vertex -1.6582 -7.44141 -180
      vertex -1.6582 -7.44141 180
      vertex -1.7998 -7.5 180
    endloop
  endfacet
  facet normal 1 0 -0
    outer loop
      vertex -1.05176 0.763672 -180
      vertex -1.05176 0.763672 180
      vertex -1.05176 -0.763672 -180
    endloop
  endfacet
  facet normal 1 -0 0
    outer loop
      vertex -1.05176 -0.763672 180
      vertex -1.05176 -0.763672 -180
      vertex -1.05176 0.763672 180
    endloop
  endfacet
  facet normal 0.309317 -0.950959 0
    outer loop
      vertex 0.401367 1.23633 -180
      vertex 0.401367 1.23633 180
      vertex -1.05176 0.763672 -180
    endloop
  endfacet
  facet normal 0.309317 -0.950959 0
    outer loop
      vertex -1.05176 0.763672 180
      vertex -1.05176 0.763672 -180
      vertex 0.401367 1.23633 180
    endloop
  endfacet
  facet normal -0.808957 -0.587868 0
    outer loop
      vertex 1.2998 0 -180
      vertex 1.2998 0 180
      vertex 0.401367 1.23633 -180
    endloop
  endfacet
  facet normal -0.808957 -0.587868 -0
    outer loop
      vertex 0.401367 1.23633 180
      vertex 0.401367 1.23633 -180
      vertex 1.2998 0 180
    endloop
  endfacet
  facet normal -0.808957 0.587868 0
    outer loop
      vertex 0.401367 -1.23633 -180
      vertex 0.401367 -1.23633 180
      vertex 1.2998 0 -180
    endloop
  endfacet
  facet normal -0.808957 0.587868 0
    outer loop
      vertex 1.2998 0 180
      vertex 1.2998 0 -180
      vertex 0.401367 -1.23633 180
    endloop
  endfacet
  facet normal 0.309317 0.950959 -0
    outer loop
      vertex -1.05176 -0.763672 -180
      vertex -1.05176 -0.763672 180
      vertex 0.401367 -1.23633 -180
    endloop
  endfacet
  facet normal 0.309317 0.950959 0
    outer loop
      vertex 0.401367 -1.23633 180
      vertex 0.401367 -1.23633 -180
      vertex -1.05176 -0.763672 180
    endloop
  endfacet
endsolid OpenSCAD_Model
