  0
SECTION
  2
HEADER
  9
$ACADVER
  1
AC1009
  9
$INSBASE
 10
0.0
 20
0.0
 30
0.0
  9
$EXTMIN
 10
0.0
 20
0.0
 30
0.0
  9
$EXTMAX
 10
0.0
 20
0.0
 30
0.0
  0
ENDSEC
  0
SECTION
  2
TABLES
  0
TABLE
  2
VPORT
 70
0
  0
ENDTAB
  0
TABLE
  2
LTYPE
 70
1
  0
LTYPE
  2
CONTINUOUS
 70
0
  3
Solid line
 72
65
 73
0
 40
0.0
  0
ENDTAB
  0
TABLE
  2
LAYER
 70
1
  0
LAYER
  2
0
 70
64
 62
7
  6
continuous
  0
ENDTAB
  0
TABLE
  2
STYLE
 70
1
  0
STYLE
  2
STANDARD
 70
0
 40
0
 41
1.0
 50
0.0
 71
0
 42
1
 3
ARIAL.TTF
 4

  0
ENDTAB
  0
TABLE
  2
VIEW
 70
0
  0
ENDTAB
  0
ENDSEC
  0
SECTION
  2
BLOCKS
  0
BLOCK
  8
0
  2
SKETCH
 70
0
 10
0.0
 20
0.0
 30
0.0
  3
SKETCH
  0
POLYLINE
  8
0
 62
7
 70
1
 66
1
 10
0.0
 20
0.0
 30
0.0
  0
VERTEX
  8
0
 10
-3.25
 20
7.5
 30
0.0
  0
VERTEX
  8
0
 10
3.25
 20
7.5
 30
0.0
  0
VERTEX
  8
0
 10
3.25
 20
22.5
 30
0.0
  0
VERTEX
  8
0
 10
-3.25
 20
22.5
 30
0.0
  0
SEQEND
  8
0
  0
POLYLINE
  8
0
 62
7
 70
1
 66
1
 10
0.0
 20
0.0
 30
0.0
  0
VERTEX
  8
0
 10
-3.25
 20
-7.5
 30
0.0
  0
VERTEX
  8
0
 10
3.25
 20
-7.5
 30
0.0
  0
VERTEX
  8
0
 10
3.25
 20
-22.5
 30
0.0
  0
VERTEX
  8
0
 10
-3.25
 20
-22.5
 30
0.0
  0
SEQEND
  8
0
  0
CIRCLE
  8
0
 62
7
 10
-15.5639076734
 20
-12.5
 30
0.0
 40
1.5
  0
CIRCLE
  8
0
 62
7
 10
13.4545751361
 20
0.0
 30
0.0
 40
1.5
  0
CIRCLE
  8
0
 62
7
 10
-15.5639076734
 20
12.5
 30
0.0
 40
1.5
  0
CIRCLE
  8
0
 62
7
 10
7.5
 20
7.5
 30
0.0
 40
1.5
  0
CIRCLE
  8
0
 62
7
 10
7.5
 20
-7.5
 30
0.0
 40
1.5
  0
CIRCLE
  8
0
 62
7
 10
7.5
 20
0.0
 30
0.0
 40
1.5
  0
CIRCLE
  8
0
 62
7
 10
-7.5
 20
0.0
 30
0.0
 40
1.5
  0
CIRCLE
  8
0
 62
7
 10
-7.5
 20
7.5
 30
0.0
 40
1.5
  0
CIRCLE
  8
0
 62
7
 10
-7.5
 20
-7.5
 30
0.0
 40
1.5
  0
POLYLINE
  8
0
 62
7
 70
1
 66
1
 10
0.0
 20
0.0
 30
0.0
  0
VERTEX
  8
0
 10
-8.92982367812
 20
25.0
 30
0.0
  0
VERTEX
  8
0
 10
9.40481267812
 20
25.0
 30
0.0
 42
-0.414213562373
  0
VERTEX
  8
0
 10
11.3320736781
 20
23.072739
 30
0.0
  0
VERTEX
  8
0
 10
11.3320736781
 20
8.39993232188
 30
0.0
 42
0.414213562373
  0
VERTEX
  8
0
 10
14.1429136781
 20
5.58909232188
 30
0.0
  0
VERTEX
  8
0
 10
16.264597
 20
5.58909232188
 30
0.0
 42
-0.414213562373
  0
VERTEX
  8
0
 10
17.627928
 20
4.22576132188
 30
0.0
  0
VERTEX
  8
0
 10
17.627928
 20
-3.93831132188
 30
0.0
 42
-0.414213562373
  0
VERTEX
  8
0
 10
15.977147
 20
-5.58909232188
 30
0.0
  0
VERTEX
  8
0
 10
14.3455406781
 20
-5.58909232188
 30
0.0
 42
0.414213562373
  0
VERTEX
  8
0
 10
11.3320736781
 20
-8.60255932188
 30
0.0
  0
VERTEX
  8
0
 10
11.3320736781
 20
-22.404673
 30
0.0
 42
-0.414213562373
  0
VERTEX
  8
0
 10
8.73674667812
 20
-25.0
 30
0.0
  0
VERTEX
  8
0
 10
-9.11519467812
 20
-25.0
 30
0.0
 42
-0.414213562373
  0
VERTEX
  8
0
 10
-11.3320736781
 20
-22.783121
 30
0.0
  0
VERTEX
  8
0
 10
-11.3320736781
 20
-18.8309538122
 30
0.0
 42
0.414213562373
  0
VERTEX
  8
0
 10
-13.1340526781
 20
-17.0289748122
 30
0.0
  0
VERTEX
  8
0
 10
-18.16632
 20
-17.0289748122
 30
0.0
 42
-0.414213562373
  0
VERTEX
  8
0
 10
-21.229426
 20
-13.9658688122
 30
0.0
  0
VERTEX
  8
0
 10
-21.229426
 20
14.2866988122
 30
0.0
 42
-0.414213562373
  0
VERTEX
  8
0
 10
-18.48715
 20
17.0289748122
 30
0.0
  0
VERTEX
  8
0
 10
-13.8786756781
 20
17.0289748122
 30
0.0
 42
0.414213562373
  0
VERTEX
  8
0
 10
-11.3320736781
 20
19.5755768122
 30
0.0
  0
VERTEX
  8
0
 10
-11.3320736781
 20
22.59775
 30
0.0
 42
-0.414213562373
  0
SEQEND
  8
0
  0
ENDBLK
  0
ENDSEC
  0
SECTION
  2
ENTITIES
  0
INSERT
  2
SKETCH
  8
0
 62
7
 10
0.0
 20
0.0
 30
0.0
  0
ENDSEC
  0
EOF
